<svg width="1920" height="1033" viewBox="0 0 1920 1033" fill="none" xmlns="http://www.w3.org/2000/svg">
<rect width="1920" height="1033" fill="#9BC0D0"/>
<circle cx="627" cy="767" r="4" fill="black"/>
<circle cx="734" cy="500" r="4" fill="black"/>
<circle cx="276" cy="863" r="4" fill="black"/>
<circle cx="49" cy="765" r="4" fill="black"/>
<circle cx="503" cy="949" r="4" fill="black"/>
<circle cx="692" cy="975" r="4" fill="black"/>
<circle cx="1027" cy="957" r="4" fill="black"/>
<circle cx="1457" cy="860" r="5" fill="black"/>
<circle cx="1500" cy="971" r="4" fill="black"/>
<circle cx="1803" cy="72" r="4" fill="black"/>
<circle cx="1536" cy="42" r="4" fill="black"/>
<circle cx="1206" cy="103" r="4" fill="black"/>
<circle cx="821" cy="36" r="4" fill="black"/>
<circle cx="380" cy="28" r="4" fill="black"/>
<circle cx="144" cy="91" r="4" fill="black"/>
<circle cx="1855" cy="743" r="4" fill="black"/>
<circle cx="1708" cy="962" r="5" fill="black"/>
<circle cx="1272" cy="692" r="4" fill="black"/>
<circle cx="1357" cy="771" r="3.5" stroke="black"/>
<circle cx="1812" cy="834" r="4.5" stroke="black"/>
<circle cx="1803" cy="975" r="3.5" stroke="black"/>
<circle cx="1224" cy="953" r="3.5" stroke="black"/>
<circle cx="896" cy="932" r="3.5" stroke="black"/>
<circle cx="503" cy="841" r="3.5" stroke="black"/>
<circle cx="1198" cy="429" r="3.5" stroke="black"/>
<circle cx="1101" cy="693" r="4.5" stroke="black"/>
<circle cx="122" cy="941" r="3.5" stroke="black"/>
<circle cx="559" cy="70" r="3.5" stroke="black"/>
<circle cx="76" cy="50" r="3.5" stroke="black"/>
<circle cx="1082" cy="51" r="4.5" stroke="black"/>
<circle cx="1437" cy="51" r="4.5" stroke="black"/>
<circle cx="1866" cy="116" r="3.5" stroke="black"/>
</svg>
